<?xml version="1.0"?>
<svg width="180" height="180" xmlns="http://www.w3.org/2000/svg" xmlns:svg="http://www.w3.org/2000/svg">
 <g class="layer">
  <title>Layer 1</title>
  <g fill="#FFF" id="svg_1" stroke-width="2">
   <circle cx="90" cy="90" fill="#ffffff" id="svg_2" r="88"/>
   <circle cx="90" cy="90" fill="#ffffff" id="svg_3" r="66"/>
   <circle cx="90" cy="90" fill="#ffffff" id="svg_4" r="44"/>
   <circle cx="90" cy="90" fill="#ffffff" id="svg_5" r="22"/>
   <path d="m90,2l0,176m62,-26l-124,-124m124,0l-124,124m150,-62l-176,0" fill="#ffffff" id="svg_6"/>
  </g>
  <g id="svg_7" opacity="0.8" transform="matrix(1 0 0 1 0 0)">
   <path d="m90,90l18,0a18,18 0 0 0 0,-5l-18,5z" fill="#000000" id="svg_8"/>
   <path d="m90,90l34,-43a55,55 0 0 0 -15,-8l-19,51z" fill="#000000" id="svg_9" transform="matrix(1 0 0 1 0 0)"/>
   <path d="m90,90l-16,-72a74,74 0 0 0 -31,15l47,57z" fill="#000000" id="svg_10" transform="matrix(1 0 0 1 0 0)"/>
   <path d="m90,90l-58,-28a65,65 0 0 0 -5,39l63,-11z" fill="#000000" id="svg_11" transform="matrix(1 0 0 1 0 0)"/>
   <path d="m90,90l-33,16a37,37 0 0 0 2,5l31,-21z" fill="#000000" id="svg_12"/>
   <path d="m90,90l-10,45a46,46 0 0 0 18,0l-8,-45z" fill="#000000" id="svg_13" transform="matrix(1 0 0 1 0 0)"/>
   <path d="m90,90l46,58a74,74 0 0 0 12,-12l-58,-46z" fill="#000000" id="svg_14"/>
  </g>
 </g>
</svg>