<svg xmlns="http://www.w3.org/2000/svg" xmlns:xlink="http://www.w3.org/1999/xlink" viewBox="0,0,256,256" width="64px" height="64px" fill-rule="nonzero"><g fill="#ffffff" fill-rule="nonzero" stroke="none" stroke-width="1" stroke-linecap="butt" stroke-linejoin="miter" stroke-miterlimit="10" stroke-dasharray="" stroke-dashoffset="0" font-family="none" font-weight="none" font-size="none" text-anchor="none" style="mix-blend-mode: normal"><g transform="scale(4,4)"><path d="M35.21289,4.09766c-0.10275,-0.0005 -0.20469,0.01537 -0.30469,0.04688l-26.01953,8.23437c-0.138,0.024 -0.27163,0.0772 -0.39062,0.1582c-0.271,0.187 -0.43359,0.49422 -0.43359,0.82422v33.98438c0,0.396 0.2327,0.75602 0.5957,0.91602l26.14453,11.55664c0.129,0.057 0.2673,0.08398 0.4043,0.08398c0.139,0 0.27725,-0.02794 0.40625,-0.08594c0.989,-0.44 24.24861,-10.77813 25.59961,-11.45312c0.34,-0.17 0.55373,-0.51748 0.55273,-0.89648l-0.08594,-34.10352c0,-0.025 -0.00191,-0.05017 -0.00391,-0.07617c-0.03,-0.404 -0.3025,-0.75195 -0.6875,-0.87695l-25.47266,-8.26367c-0.099,-0.0315 -0.20194,-0.04833 -0.30469,-0.04883zM35.20508,6.14648l22.80664,7.40039l-23.01367,8.38867l-23.14844,-8.39844zM10.06445,15.01953l23.93555,8.68164v33.57422l-23.93555,-10.58008zM59.68555,15.06641l0.08008,31.76953c-3.324,1.529 -19.25462,8.61609 -23.76562,10.62109v-33.75781zM3,16c-0.552,0 -1,0.448 -1,1c0,0.552 0.448,1 1,1h2c0.552,0 1,-0.448 1,-1c0,-0.552 -0.448,-1 -1,-1zM57.15234,20.49023l-2.60547,0.92578l-2.1875,17.15039l-2.85742,-15.2168l-2.27148,0.75586l-2.77344,17.99219l-2.52148,-16.14258l-2.94336,1.00977l3.69922,21.18555l3.02734,-1.42773l2.60547,-16.90039l2.77539,14.96484l2.94141,-1.17578zM3,21c-0.552,0 -1,0.448 -1,1c0,0.552 0.448,1 1,1h2c0.552,0 1,-0.448 1,-1c0,-0.552 -0.448,-1 -1,-1zM21.41992,23.26563c-1.652,0 -5.38086,-0.00014 -5.38086,5.38086c0,3.363 3.38064,6.03222 6.30664,8.32422c3.111,2.438 4.45592,7.81753 0.41992,7.14453c-4.036,-0.673 -3.95117,-5.88477 -3.95117,-5.88477c0,0 -1.17734,-0.50378 -3.02734,-1.17578c-0.252,5.044 3.61552,9.07895 6.97852,9.75195c1.776,0.355 5.01189,0.67192 5.21289,-4.45508c0.169,-4.289 -2.29116,-6.37334 -4.03516,-7.65234c-1.367,-1.001 -5.21289,-4.03573 -5.21289,-6.05273c0,-0.673 0.25145,-2.77641 2.68945,-2.69141c3.614,0.125 3.86719,5.55078 3.86719,5.55078c0,0 1.51338,0.67181 2.85938,1.00781c0,-6.222 -3.36356,-9.24805 -6.72656,-9.24805zM3,26c-0.552,0 -1,0.448 -1,1c0,0.552 0.448,1 1,1h2c0.552,0 1,-0.448 1,-1c0,-0.552 -0.448,-1 -1,-1zM3,31c-0.552,0 -1,0.448 -1,1c0,0.552 0.448,1 1,1h2c0.552,0 1,-0.448 1,-1c0,-0.552 -0.448,-1 -1,-1zM3,36c-0.552,0 -1,0.448 -1,1c0,0.552 0.448,1 1,1h2c0.552,0 1,-0.448 1,-1c0,-0.552 -0.448,-1 -1,-1zM3,41c-0.552,0 -1,0.448 -1,1c0,0.552 0.448,1 1,1h2c0.552,0 1,-0.448 1,-1c0,-0.552 -0.448,-1 -1,-1z"></path></g></g></svg>